<?xml version="1.0" encoding="utf-8"?>
<!-- Generator: Adobe Illustrator 27.2.0, SVG Export Plug-In . SVG Version: 6.00 Build 0)  -->
<svg version="1.1" id="Layer_1" xmlns="http://www.w3.org/2000/svg" xmlns:xlink="http://www.w3.org/1999/xlink" x="0px" y="0px"
	 viewBox="0 0 916.87 600.39" style="enable-background:new 0 0 916.87 600.39;" xml:space="preserve">
<g>
	<path d="M0,300.79C0,131.45,112.5,0,272.37,0c92.36,0,174.08,37.89,216.71,112.5l90-100.66v576.71l-90-100.66
		c-42.63,75.79-124.35,112.5-216.71,112.5C112.5,600.39,0,467.76,0,300.79z M489.08,300.79c0-120.79-86.45-213.16-196.58-213.16
		c-114.87,0-200.13,90-200.13,213.16c0,121.97,85.26,211.97,200.13,211.97C402.63,512.76,489.08,421.58,489.08,300.79z"/>
	<path d="M604.24,11.84l90,97.28C727.4,33.33,802,0,916.87,0v98.29c-135,0-222.63,75.79-222.63,216.71v273.55h-90V11.84z"/>
</g>
</svg>
